<svg xmlns="http://www.w3.org/2000/svg" width="805" height="600"><rect width="805" height="600" x="0" y="0" fill="#FFFFFF" id="background"/><g transform="translate(50,50)" id="visualization"><g id="viz"><g class="hulls"><path d="M106,462L106,423L71,385L35,423L0,462L12,481L59,481Z" fill="#1f77b4" stroke="#1f77b4" stroke-width="10" stroke-linejoin="round" opacity="0.5"/><g><circle cx="47" cy="462" fill="#1f77b4" r="5.5"/><circle cx="47" cy="462" fill="#1f77b4" r="5.5"/><circle cx="35" cy="462" fill="#1f77b4" r="5.5"/><circle cx="59" cy="462" fill="#1f77b4" r="5.5"/><circle cx="47" cy="462" fill="#1f77b4" r="5.5"/><circle cx="82" cy="423" fill="#1f77b4" r="5.5"/><circle cx="47" cy="442" fill="#1f77b4" r="5.5"/><circle cx="59" cy="462" fill="#1f77b4" r="5.5"/><circle cx="47" cy="462" fill="#1f77b4" r="5.5"/><circle cx="59" cy="481" fill="#1f77b4" r="5.5"/><circle cx="59" cy="462" fill="#1f77b4" r="5.5"/><circle cx="71" cy="462" fill="#1f77b4" r="5.5"/><circle cx="47" cy="481" fill="#1f77b4" r="5.5"/><circle cx="12" cy="481" fill="#1f77b4" r="5.5"/><circle cx="23" cy="462" fill="#1f77b4" r="5.5"/><circle cx="59" cy="423" fill="#1f77b4" r="5.5"/><circle cx="35" cy="423" fill="#1f77b4" r="5.5"/><circle cx="47" cy="442" fill="#1f77b4" r="5.5"/><circle cx="82" cy="442" fill="#1f77b4" r="5.5"/><circle cx="59" cy="442" fill="#1f77b4" r="5.5"/><circle cx="82" cy="462" fill="#1f77b4" r="5.5"/><circle cx="59" cy="423" fill="#1f77b4" r="5.5"/><circle cx="0" cy="462" fill="#1f77b4" r="5.5"/><circle cx="82" cy="404" fill="#1f77b4" r="5.5"/><circle cx="106" cy="462" fill="#1f77b4" r="5.5"/><circle cx="71" cy="462" fill="#1f77b4" r="5.5"/><circle cx="71" cy="423" fill="#1f77b4" r="5.5"/><circle cx="59" cy="462" fill="#1f77b4" r="5.5"/><circle cx="47" cy="462" fill="#1f77b4" r="5.5"/><circle cx="71" cy="462" fill="#1f77b4" r="5.5"/><circle cx="71" cy="462" fill="#1f77b4" r="5.5"/><circle cx="59" cy="423" fill="#1f77b4" r="5.5"/><circle cx="59" cy="481" fill="#1f77b4" r="5.5"/><circle cx="47" cy="462" fill="#1f77b4" r="5.5"/><circle cx="59" cy="481" fill="#1f77b4" r="5.5"/><circle cx="23" cy="462" fill="#1f77b4" r="5.5"/><circle cx="35" cy="462" fill="#1f77b4" r="5.5"/><circle cx="59" cy="481" fill="#1f77b4" r="5.5"/><circle cx="35" cy="462" fill="#1f77b4" r="5.5"/><circle cx="59" cy="462" fill="#1f77b4" r="5.5"/><circle cx="35" cy="442" fill="#1f77b4" r="5.5"/><circle cx="35" cy="442" fill="#1f77b4" r="5.5"/><circle cx="35" cy="462" fill="#1f77b4" r="5.5"/><circle cx="71" cy="385" fill="#1f77b4" r="5.5"/><circle cx="106" cy="423" fill="#1f77b4" r="5.5"/><circle cx="47" cy="442" fill="#1f77b4" r="5.5"/><circle cx="71" cy="462" fill="#1f77b4" r="5.5"/><circle cx="47" cy="462" fill="#1f77b4" r="5.5"/><circle cx="59" cy="462" fill="#1f77b4" r="5.5"/><circle cx="47" cy="462" fill="#1f77b4" r="5.5"/></g></g><g class="hulls"><path d="M482,192L470,173L447,154L235,288L270,308L364,308L435,269Z" fill="#ff7f0e" stroke="#ff7f0e" stroke-width="10" stroke-linejoin="round" opacity="0.5"/><g><circle cx="435" cy="231" fill="#ff7f0e" r="5.5"/><circle cx="411" cy="212" fill="#ff7f0e" r="5.5"/><circle cx="458" cy="212" fill="#ff7f0e" r="5.5"/><circle cx="353" cy="250" fill="#ff7f0e" r="5.5"/><circle cx="423" cy="212" fill="#ff7f0e" r="5.5"/><circle cx="411" cy="250" fill="#ff7f0e" r="5.5"/><circle cx="435" cy="192" fill="#ff7f0e" r="5.5"/><circle cx="270" cy="308" fill="#ff7f0e" r="5.5"/><circle cx="423" cy="250" fill="#ff7f0e" r="5.5"/><circle cx="341" cy="231" fill="#ff7f0e" r="5.5"/><circle cx="294" cy="308" fill="#ff7f0e" r="5.5"/><circle cx="376" cy="212" fill="#ff7f0e" r="5.5"/><circle cx="353" cy="308" fill="#ff7f0e" r="5.5"/><circle cx="435" cy="231" fill="#ff7f0e" r="5.5"/><circle cx="306" cy="250" fill="#ff7f0e" r="5.5"/><circle cx="400" cy="231" fill="#ff7f0e" r="5.5"/><circle cx="411" cy="212" fill="#ff7f0e" r="5.5"/><circle cx="364" cy="308" fill="#ff7f0e" r="5.5"/><circle cx="411" cy="212" fill="#ff7f0e" r="5.5"/><circle cx="341" cy="288" fill="#ff7f0e" r="5.5"/><circle cx="447" cy="154" fill="#ff7f0e" r="5.5"/><circle cx="353" cy="250" fill="#ff7f0e" r="5.5"/><circle cx="458" cy="212" fill="#ff7f0e" r="5.5"/><circle cx="435" cy="269" fill="#ff7f0e" r="5.5"/><circle cx="388" cy="250" fill="#ff7f0e" r="5.5"/><circle cx="400" cy="231" fill="#ff7f0e" r="5.5"/><circle cx="447" cy="231" fill="#ff7f0e" r="5.5"/><circle cx="470" cy="173" fill="#ff7f0e" r="5.5"/><circle cx="411" cy="212" fill="#ff7f0e" r="5.5"/><circle cx="294" cy="308" fill="#ff7f0e" r="5.5"/><circle cx="329" cy="288" fill="#ff7f0e" r="5.5"/><circle cx="317" cy="308" fill="#ff7f0e" r="5.5"/><circle cx="341" cy="269" fill="#ff7f0e" r="5.5"/><circle cx="482" cy="192" fill="#ff7f0e" r="5.5"/><circle cx="411" cy="212" fill="#ff7f0e" r="5.5"/><circle cx="411" cy="192" fill="#ff7f0e" r="5.5"/><circle cx="435" cy="212" fill="#ff7f0e" r="5.5"/><circle cx="400" cy="250" fill="#ff7f0e" r="5.5"/><circle cx="364" cy="250" fill="#ff7f0e" r="5.5"/><circle cx="353" cy="250" fill="#ff7f0e" r="5.5"/><circle cx="400" cy="269" fill="#ff7f0e" r="5.5"/><circle cx="423" cy="231" fill="#ff7f0e" r="5.5"/><circle cx="353" cy="269" fill="#ff7f0e" r="5.5"/><circle cx="270" cy="308" fill="#ff7f0e" r="5.5"/><circle cx="376" cy="250" fill="#ff7f0e" r="5.5"/><circle cx="376" cy="269" fill="#ff7f0e" r="5.5"/><circle cx="376" cy="250" fill="#ff7f0e" r="5.5"/><circle cx="388" cy="250" fill="#ff7f0e" r="5.5"/><circle cx="235" cy="288" fill="#ff7f0e" r="5.5"/><circle cx="364" cy="250" fill="#ff7f0e" r="5.5"/></g></g><g class="hulls"><path d="M693,58L599,19L552,19L482,38L411,173L470,212L541,231L670,115Z" fill="#2ca02c" stroke="#2ca02c" stroke-width="10" stroke-linejoin="round" opacity="0.5"/><g><circle cx="588" cy="19" fill="#2ca02c" r="5.5"/><circle cx="482" cy="135" fill="#2ca02c" r="5.5"/><circle cx="576" cy="96" fill="#2ca02c" r="5.5"/><circle cx="541" cy="154" fill="#2ca02c" r="5.5"/><circle cx="564" cy="77" fill="#2ca02c" r="5.5"/><circle cx="658" cy="96" fill="#2ca02c" r="5.5"/><circle cx="411" cy="173" fill="#2ca02c" r="5.5"/><circle cx="623" cy="154" fill="#2ca02c" r="5.5"/><circle cx="564" cy="154" fill="#2ca02c" r="5.5"/><circle cx="599" cy="19" fill="#2ca02c" r="5.5"/><circle cx="482" cy="115" fill="#2ca02c" r="5.5"/><circle cx="505" cy="135" fill="#2ca02c" r="5.5"/><circle cx="529" cy="96" fill="#2ca02c" r="5.5"/><circle cx="470" cy="115" fill="#2ca02c" r="5.5"/><circle cx="482" cy="38" fill="#2ca02c" r="5.5"/><circle cx="505" cy="58" fill="#2ca02c" r="5.5"/><circle cx="529" cy="154" fill="#2ca02c" r="5.5"/><circle cx="670" cy="77" fill="#2ca02c" r="5.5"/><circle cx="693" cy="58" fill="#2ca02c" r="5.5"/><circle cx="470" cy="212" fill="#2ca02c" r="5.5"/><circle cx="552" cy="58" fill="#2ca02c" r="5.5"/><circle cx="458" cy="115" fill="#2ca02c" r="5.5"/><circle cx="670" cy="115" fill="#2ca02c" r="5.5"/><circle cx="458" cy="154" fill="#2ca02c" r="5.5"/><circle cx="552" cy="96" fill="#2ca02c" r="5.5"/><circle cx="588" cy="154" fill="#2ca02c" r="5.5"/><circle cx="447" cy="154" fill="#2ca02c" r="5.5"/><circle cx="458" cy="154" fill="#2ca02c" r="5.5"/><circle cx="541" cy="96" fill="#2ca02c" r="5.5"/><circle cx="564" cy="192" fill="#2ca02c" r="5.5"/><circle cx="599" cy="135" fill="#2ca02c" r="5.5"/><circle cx="635" cy="115" fill="#2ca02c" r="5.5"/><circle cx="541" cy="77" fill="#2ca02c" r="5.5"/><circle cx="482" cy="212" fill="#2ca02c" r="5.5"/><circle cx="541" cy="231" fill="#2ca02c" r="5.5"/><circle cx="599" cy="58" fill="#2ca02c" r="5.5"/><circle cx="541" cy="38" fill="#2ca02c" r="5.5"/><circle cx="529" cy="154" fill="#2ca02c" r="5.5"/><circle cx="447" cy="154" fill="#2ca02c" r="5.5"/><circle cx="517" cy="96" fill="#2ca02c" r="5.5"/><circle cx="541" cy="38" fill="#2ca02c" r="5.5"/><circle cx="482" cy="58" fill="#2ca02c" r="5.5"/><circle cx="482" cy="135" fill="#2ca02c" r="5.5"/><circle cx="576" cy="58" fill="#2ca02c" r="5.5"/><circle cx="552" cy="19" fill="#2ca02c" r="5.5"/><circle cx="494" cy="58" fill="#2ca02c" r="5.5"/><circle cx="470" cy="135" fill="#2ca02c" r="5.5"/><circle cx="494" cy="115" fill="#2ca02c" r="5.5"/><circle cx="517" cy="58" fill="#2ca02c" r="5.5"/><circle cx="482" cy="154" fill="#2ca02c" r="5.5"/></g></g></g><g id="labels"><g transform="translate(47,462)"><text x="0" y="0" text-anchor="middle" dominant-baseline="text-before-edge" transform="translate(0,0)"><tspan x="0" y="0" dy="0"/></text></g><g transform="translate(47,462)"><text x="0" y="0" text-anchor="middle" dominant-baseline="text-before-edge" transform="translate(0,0)"><tspan x="0" y="0" dy="0"/></text></g><g transform="translate(35,462)"><text x="0" y="0" text-anchor="middle" dominant-baseline="text-before-edge" transform="translate(0,0)"><tspan x="0" y="0" dy="0"/></text></g><g transform="translate(59,462)"><text x="0" y="0" text-anchor="middle" dominant-baseline="text-before-edge" transform="translate(0,0)"><tspan x="0" y="0" dy="0"/></text></g><g transform="translate(47,462)"><text x="0" y="0" text-anchor="middle" dominant-baseline="text-before-edge" transform="translate(0,0)"><tspan x="0" y="0" dy="0"/></text></g><g transform="translate(82,423)"><text x="0" y="0" text-anchor="middle" dominant-baseline="text-before-edge" transform="translate(0,0)"><tspan x="0" y="0" dy="0"/></text></g><g transform="translate(47,442)"><text x="0" y="0" text-anchor="middle" dominant-baseline="text-before-edge" transform="translate(0,0)"><tspan x="0" y="0" dy="0"/></text></g><g transform="translate(59,462)"><text x="0" y="0" text-anchor="middle" dominant-baseline="text-before-edge" transform="translate(0,0)"><tspan x="0" y="0" dy="0"/></text></g><g transform="translate(47,462)"><text x="0" y="0" text-anchor="middle" dominant-baseline="text-before-edge" transform="translate(0,0)"><tspan x="0" y="0" dy="0"/></text></g><g transform="translate(59,481)"><text x="0" y="0" text-anchor="middle" dominant-baseline="text-before-edge" transform="translate(0,0)"><tspan x="0" y="0" dy="0"/></text></g><g transform="translate(59,462)"><text x="0" y="0" text-anchor="middle" dominant-baseline="text-before-edge" transform="translate(0,0)"><tspan x="0" y="0" dy="0"/></text></g><g transform="translate(71,462)"><text x="0" y="0" text-anchor="middle" dominant-baseline="text-before-edge" transform="translate(0,0)"><tspan x="0" y="0" dy="0"/></text></g><g transform="translate(47,481)"><text x="0" y="0" text-anchor="middle" dominant-baseline="text-before-edge" transform="translate(0,0)"><tspan x="0" y="0" dy="0"/></text></g><g transform="translate(12,481)"><text x="0" y="0" text-anchor="middle" dominant-baseline="text-before-edge" transform="translate(0,0)"><tspan x="0" y="0" dy="0"/></text></g><g transform="translate(23,462)"><text x="0" y="0" text-anchor="middle" dominant-baseline="text-before-edge" transform="translate(0,0)"><tspan x="0" y="0" dy="0"/></text></g><g transform="translate(59,423)"><text x="0" y="0" text-anchor="middle" dominant-baseline="text-before-edge" transform="translate(0,0)"><tspan x="0" y="0" dy="0"/></text></g><g transform="translate(35,423)"><text x="0" y="0" text-anchor="middle" dominant-baseline="text-before-edge" transform="translate(0,0)"><tspan x="0" y="0" dy="0"/></text></g><g transform="translate(47,442)"><text x="0" y="0" text-anchor="middle" dominant-baseline="text-before-edge" transform="translate(0,0)"><tspan x="0" y="0" dy="0"/></text></g><g transform="translate(82,442)"><text x="0" y="0" text-anchor="middle" dominant-baseline="text-before-edge" transform="translate(0,0)"><tspan x="0" y="0" dy="0"/></text></g><g transform="translate(59,442)"><text x="0" y="0" text-anchor="middle" dominant-baseline="text-before-edge" transform="translate(0,0)"><tspan x="0" y="0" dy="0"/></text></g><g transform="translate(82,462)"><text x="0" y="0" text-anchor="middle" dominant-baseline="text-before-edge" transform="translate(0,0)"><tspan x="0" y="0" dy="0"/></text></g><g transform="translate(59,423)"><text x="0" y="0" text-anchor="middle" dominant-baseline="text-before-edge" transform="translate(0,0)"><tspan x="0" y="0" dy="0"/></text></g><g transform="translate(0,462)"><text x="0" y="0" text-anchor="middle" dominant-baseline="text-before-edge" transform="translate(0,0)"><tspan x="0" y="0" dy="0"/></text></g><g transform="translate(82,404)"><text x="0" y="0" text-anchor="middle" dominant-baseline="text-before-edge" transform="translate(0,0)"><tspan x="0" y="0" dy="0"/></text></g><g transform="translate(106,462)"><text x="0" y="0" text-anchor="middle" dominant-baseline="text-before-edge" transform="translate(0,0)"><tspan x="0" y="0" dy="0"/></text></g><g transform="translate(71,462)"><text x="0" y="0" text-anchor="middle" dominant-baseline="text-before-edge" transform="translate(0,0)"><tspan x="0" y="0" dy="0"/></text></g><g transform="translate(71,423)"><text x="0" y="0" text-anchor="middle" dominant-baseline="text-before-edge" transform="translate(0,0)"><tspan x="0" y="0" dy="0"/></text></g><g transform="translate(59,462)"><text x="0" y="0" text-anchor="middle" dominant-baseline="text-before-edge" transform="translate(0,0)"><tspan x="0" y="0" dy="0"/></text></g><g transform="translate(47,462)"><text x="0" y="0" text-anchor="middle" dominant-baseline="text-before-edge" transform="translate(0,0)"><tspan x="0" y="0" dy="0"/></text></g><g transform="translate(71,462)"><text x="0" y="0" text-anchor="middle" dominant-baseline="text-before-edge" transform="translate(0,0)"><tspan x="0" y="0" dy="0"/></text></g><g transform="translate(71,462)"><text x="0" y="0" text-anchor="middle" dominant-baseline="text-before-edge" transform="translate(0,0)"><tspan x="0" y="0" dy="0"/></text></g><g transform="translate(59,423)"><text x="0" y="0" text-anchor="middle" dominant-baseline="text-before-edge" transform="translate(0,0)"><tspan x="0" y="0" dy="0"/></text></g><g transform="translate(59,481)"><text x="0" y="0" text-anchor="middle" dominant-baseline="text-before-edge" transform="translate(0,0)"><tspan x="0" y="0" dy="0"/></text></g><g transform="translate(47,462)"><text x="0" y="0" text-anchor="middle" dominant-baseline="text-before-edge" transform="translate(0,0)"><tspan x="0" y="0" dy="0"/></text></g><g transform="translate(59,481)"><text x="0" y="0" text-anchor="middle" dominant-baseline="text-before-edge" transform="translate(0,0)"><tspan x="0" y="0" dy="0"/></text></g><g transform="translate(23,462)"><text x="0" y="0" text-anchor="middle" dominant-baseline="text-before-edge" transform="translate(0,0)"><tspan x="0" y="0" dy="0"/></text></g><g transform="translate(35,462)"><text x="0" y="0" text-anchor="middle" dominant-baseline="text-before-edge" transform="translate(0,0)"><tspan x="0" y="0" dy="0"/></text></g><g transform="translate(59,481)"><text x="0" y="0" text-anchor="middle" dominant-baseline="text-before-edge" transform="translate(0,0)"><tspan x="0" y="0" dy="0"/></text></g><g transform="translate(35,462)"><text x="0" y="0" text-anchor="middle" dominant-baseline="text-before-edge" transform="translate(0,0)"><tspan x="0" y="0" dy="0"/></text></g><g transform="translate(59,462)"><text x="0" y="0" text-anchor="middle" dominant-baseline="text-before-edge" transform="translate(0,0)"><tspan x="0" y="0" dy="0"/></text></g><g transform="translate(35,442)"><text x="0" y="0" text-anchor="middle" dominant-baseline="text-before-edge" transform="translate(0,0)"><tspan x="0" y="0" dy="0"/></text></g><g transform="translate(35,442)"><text x="0" y="0" text-anchor="middle" dominant-baseline="text-before-edge" transform="translate(0,0)"><tspan x="0" y="0" dy="0"/></text></g><g transform="translate(35,462)"><text x="0" y="0" text-anchor="middle" dominant-baseline="text-before-edge" transform="translate(0,0)"><tspan x="0" y="0" dy="0"/></text></g><g transform="translate(71,385)"><text x="0" y="0" text-anchor="middle" dominant-baseline="text-before-edge" transform="translate(0,0)"><tspan x="0" y="0" dy="0"/></text></g><g transform="translate(106,423)"><text x="0" y="0" text-anchor="middle" dominant-baseline="text-before-edge" transform="translate(0,0)"><tspan x="0" y="0" dy="0"/></text></g><g transform="translate(47,442)"><text x="0" y="0" text-anchor="middle" dominant-baseline="text-before-edge" transform="translate(0,0)"><tspan x="0" y="0" dy="0"/></text></g><g transform="translate(71,462)"><text x="0" y="0" text-anchor="middle" dominant-baseline="text-before-edge" transform="translate(0,0)"><tspan x="0" y="0" dy="0"/></text></g><g transform="translate(47,462)"><text x="0" y="0" text-anchor="middle" dominant-baseline="text-before-edge" transform="translate(0,0)"><tspan x="0" y="0" dy="0"/></text></g><g transform="translate(59,462)"><text x="0" y="0" text-anchor="middle" dominant-baseline="text-before-edge" transform="translate(0,0)"><tspan x="0" y="0" dy="0"/></text></g><g transform="translate(47,462)"><text x="0" y="0" text-anchor="middle" dominant-baseline="text-before-edge" transform="translate(0,0)"><tspan x="0" y="0" dy="0"/></text></g><g transform="translate(435,231)"><text x="0" y="0" text-anchor="middle" dominant-baseline="text-before-edge" transform="translate(0,0)"><tspan x="0" y="0" dy="0"/></text></g><g transform="translate(411,212)"><text x="0" y="0" text-anchor="middle" dominant-baseline="text-before-edge" transform="translate(0,0)"><tspan x="0" y="0" dy="0"/></text></g><g transform="translate(458,212)"><text x="0" y="0" text-anchor="middle" dominant-baseline="text-before-edge" transform="translate(0,0)"><tspan x="0" y="0" dy="0"/></text></g><g transform="translate(353,250)"><text x="0" y="0" text-anchor="middle" dominant-baseline="text-before-edge" transform="translate(0,0)"><tspan x="0" y="0" dy="0"/></text></g><g transform="translate(423,212)"><text x="0" y="0" text-anchor="middle" dominant-baseline="text-before-edge" transform="translate(0,0)"><tspan x="0" y="0" dy="0"/></text></g><g transform="translate(411,250)"><text x="0" y="0" text-anchor="middle" dominant-baseline="text-before-edge" transform="translate(0,0)"><tspan x="0" y="0" dy="0"/></text></g><g transform="translate(435,192)"><text x="0" y="0" text-anchor="middle" dominant-baseline="text-before-edge" transform="translate(0,0)"><tspan x="0" y="0" dy="0"/></text></g><g transform="translate(270,308)"><text x="0" y="0" text-anchor="middle" dominant-baseline="text-before-edge" transform="translate(0,0)"><tspan x="0" y="0" dy="0"/></text></g><g transform="translate(423,250)"><text x="0" y="0" text-anchor="middle" dominant-baseline="text-before-edge" transform="translate(0,0)"><tspan x="0" y="0" dy="0"/></text></g><g transform="translate(341,231)"><text x="0" y="0" text-anchor="middle" dominant-baseline="text-before-edge" transform="translate(0,0)"><tspan x="0" y="0" dy="0"/></text></g><g transform="translate(294,308)"><text x="0" y="0" text-anchor="middle" dominant-baseline="text-before-edge" transform="translate(0,0)"><tspan x="0" y="0" dy="0"/></text></g><g transform="translate(376,212)"><text x="0" y="0" text-anchor="middle" dominant-baseline="text-before-edge" transform="translate(0,0)"><tspan x="0" y="0" dy="0"/></text></g><g transform="translate(353,308)"><text x="0" y="0" text-anchor="middle" dominant-baseline="text-before-edge" transform="translate(0,0)"><tspan x="0" y="0" dy="0"/></text></g><g transform="translate(435,231)"><text x="0" y="0" text-anchor="middle" dominant-baseline="text-before-edge" transform="translate(0,0)"><tspan x="0" y="0" dy="0"/></text></g><g transform="translate(306,250)"><text x="0" y="0" text-anchor="middle" dominant-baseline="text-before-edge" transform="translate(0,0)"><tspan x="0" y="0" dy="0"/></text></g><g transform="translate(400,231)"><text x="0" y="0" text-anchor="middle" dominant-baseline="text-before-edge" transform="translate(0,0)"><tspan x="0" y="0" dy="0"/></text></g><g transform="translate(411,212)"><text x="0" y="0" text-anchor="middle" dominant-baseline="text-before-edge" transform="translate(0,0)"><tspan x="0" y="0" dy="0"/></text></g><g transform="translate(364,308)"><text x="0" y="0" text-anchor="middle" dominant-baseline="text-before-edge" transform="translate(0,0)"><tspan x="0" y="0" dy="0"/></text></g><g transform="translate(411,212)"><text x="0" y="0" text-anchor="middle" dominant-baseline="text-before-edge" transform="translate(0,0)"><tspan x="0" y="0" dy="0"/></text></g><g transform="translate(341,288)"><text x="0" y="0" text-anchor="middle" dominant-baseline="text-before-edge" transform="translate(0,0)"><tspan x="0" y="0" dy="0"/></text></g><g transform="translate(447,154)"><text x="0" y="0" text-anchor="middle" dominant-baseline="text-before-edge" transform="translate(0,0)"><tspan x="0" y="0" dy="0"/></text></g><g transform="translate(353,250)"><text x="0" y="0" text-anchor="middle" dominant-baseline="text-before-edge" transform="translate(0,0)"><tspan x="0" y="0" dy="0"/></text></g><g transform="translate(458,212)"><text x="0" y="0" text-anchor="middle" dominant-baseline="text-before-edge" transform="translate(0,0)"><tspan x="0" y="0" dy="0"/></text></g><g transform="translate(435,269)"><text x="0" y="0" text-anchor="middle" dominant-baseline="text-before-edge" transform="translate(0,0)"><tspan x="0" y="0" dy="0"/></text></g><g transform="translate(388,250)"><text x="0" y="0" text-anchor="middle" dominant-baseline="text-before-edge" transform="translate(0,0)"><tspan x="0" y="0" dy="0"/></text></g><g transform="translate(400,231)"><text x="0" y="0" text-anchor="middle" dominant-baseline="text-before-edge" transform="translate(0,0)"><tspan x="0" y="0" dy="0"/></text></g><g transform="translate(447,231)"><text x="0" y="0" text-anchor="middle" dominant-baseline="text-before-edge" transform="translate(0,0)"><tspan x="0" y="0" dy="0"/></text></g><g transform="translate(470,173)"><text x="0" y="0" text-anchor="middle" dominant-baseline="text-before-edge" transform="translate(0,0)"><tspan x="0" y="0" dy="0"/></text></g><g transform="translate(411,212)"><text x="0" y="0" text-anchor="middle" dominant-baseline="text-before-edge" transform="translate(0,0)"><tspan x="0" y="0" dy="0"/></text></g><g transform="translate(294,308)"><text x="0" y="0" text-anchor="middle" dominant-baseline="text-before-edge" transform="translate(0,0)"><tspan x="0" y="0" dy="0"/></text></g><g transform="translate(329,288)"><text x="0" y="0" text-anchor="middle" dominant-baseline="text-before-edge" transform="translate(0,0)"><tspan x="0" y="0" dy="0"/></text></g><g transform="translate(317,308)"><text x="0" y="0" text-anchor="middle" dominant-baseline="text-before-edge" transform="translate(0,0)"><tspan x="0" y="0" dy="0"/></text></g><g transform="translate(341,269)"><text x="0" y="0" text-anchor="middle" dominant-baseline="text-before-edge" transform="translate(0,0)"><tspan x="0" y="0" dy="0"/></text></g><g transform="translate(482,192)"><text x="0" y="0" text-anchor="middle" dominant-baseline="text-before-edge" transform="translate(0,0)"><tspan x="0" y="0" dy="0"/></text></g><g transform="translate(411,212)"><text x="0" y="0" text-anchor="middle" dominant-baseline="text-before-edge" transform="translate(0,0)"><tspan x="0" y="0" dy="0"/></text></g><g transform="translate(411,192)"><text x="0" y="0" text-anchor="middle" dominant-baseline="text-before-edge" transform="translate(0,0)"><tspan x="0" y="0" dy="0"/></text></g><g transform="translate(435,212)"><text x="0" y="0" text-anchor="middle" dominant-baseline="text-before-edge" transform="translate(0,0)"><tspan x="0" y="0" dy="0"/></text></g><g transform="translate(400,250)"><text x="0" y="0" text-anchor="middle" dominant-baseline="text-before-edge" transform="translate(0,0)"><tspan x="0" y="0" dy="0"/></text></g><g transform="translate(364,250)"><text x="0" y="0" text-anchor="middle" dominant-baseline="text-before-edge" transform="translate(0,0)"><tspan x="0" y="0" dy="0"/></text></g><g transform="translate(353,250)"><text x="0" y="0" text-anchor="middle" dominant-baseline="text-before-edge" transform="translate(0,0)"><tspan x="0" y="0" dy="0"/></text></g><g transform="translate(400,269)"><text x="0" y="0" text-anchor="middle" dominant-baseline="text-before-edge" transform="translate(0,0)"><tspan x="0" y="0" dy="0"/></text></g><g transform="translate(423,231)"><text x="0" y="0" text-anchor="middle" dominant-baseline="text-before-edge" transform="translate(0,0)"><tspan x="0" y="0" dy="0"/></text></g><g transform="translate(353,269)"><text x="0" y="0" text-anchor="middle" dominant-baseline="text-before-edge" transform="translate(0,0)"><tspan x="0" y="0" dy="0"/></text></g><g transform="translate(270,308)"><text x="0" y="0" text-anchor="middle" dominant-baseline="text-before-edge" transform="translate(0,0)"><tspan x="0" y="0" dy="0"/></text></g><g transform="translate(376,250)"><text x="0" y="0" text-anchor="middle" dominant-baseline="text-before-edge" transform="translate(0,0)"><tspan x="0" y="0" dy="0"/></text></g><g transform="translate(376,269)"><text x="0" y="0" text-anchor="middle" dominant-baseline="text-before-edge" transform="translate(0,0)"><tspan x="0" y="0" dy="0"/></text></g><g transform="translate(376,250)"><text x="0" y="0" text-anchor="middle" dominant-baseline="text-before-edge" transform="translate(0,0)"><tspan x="0" y="0" dy="0"/></text></g><g transform="translate(388,250)"><text x="0" y="0" text-anchor="middle" dominant-baseline="text-before-edge" transform="translate(0,0)"><tspan x="0" y="0" dy="0"/></text></g><g transform="translate(235,288)"><text x="0" y="0" text-anchor="middle" dominant-baseline="text-before-edge" transform="translate(0,0)"><tspan x="0" y="0" dy="0"/></text></g><g transform="translate(364,250)"><text x="0" y="0" text-anchor="middle" dominant-baseline="text-before-edge" transform="translate(0,0)"><tspan x="0" y="0" dy="0"/></text></g><g transform="translate(588,19)"><text x="0" y="0" text-anchor="middle" dominant-baseline="text-before-edge" transform="translate(0,0)"><tspan x="0" y="0" dy="0"/></text></g><g transform="translate(482,135)"><text x="0" y="0" text-anchor="middle" dominant-baseline="text-before-edge" transform="translate(0,0)"><tspan x="0" y="0" dy="0"/></text></g><g transform="translate(576,96)"><text x="0" y="0" text-anchor="middle" dominant-baseline="text-before-edge" transform="translate(0,0)"><tspan x="0" y="0" dy="0"/></text></g><g transform="translate(541,154)"><text x="0" y="0" text-anchor="middle" dominant-baseline="text-before-edge" transform="translate(0,0)"><tspan x="0" y="0" dy="0"/></text></g><g transform="translate(564,77)"><text x="0" y="0" text-anchor="middle" dominant-baseline="text-before-edge" transform="translate(0,0)"><tspan x="0" y="0" dy="0"/></text></g><g transform="translate(658,96)"><text x="0" y="0" text-anchor="middle" dominant-baseline="text-before-edge" transform="translate(0,0)"><tspan x="0" y="0" dy="0"/></text></g><g transform="translate(411,173)"><text x="0" y="0" text-anchor="middle" dominant-baseline="text-before-edge" transform="translate(0,0)"><tspan x="0" y="0" dy="0"/></text></g><g transform="translate(623,154)"><text x="0" y="0" text-anchor="middle" dominant-baseline="text-before-edge" transform="translate(0,0)"><tspan x="0" y="0" dy="0"/></text></g><g transform="translate(564,154)"><text x="0" y="0" text-anchor="middle" dominant-baseline="text-before-edge" transform="translate(0,0)"><tspan x="0" y="0" dy="0"/></text></g><g transform="translate(599,19)"><text x="0" y="0" text-anchor="middle" dominant-baseline="text-before-edge" transform="translate(0,0)"><tspan x="0" y="0" dy="0"/></text></g><g transform="translate(482,115)"><text x="0" y="0" text-anchor="middle" dominant-baseline="text-before-edge" transform="translate(0,0)"><tspan x="0" y="0" dy="0"/></text></g><g transform="translate(505,135)"><text x="0" y="0" text-anchor="middle" dominant-baseline="text-before-edge" transform="translate(0,0)"><tspan x="0" y="0" dy="0"/></text></g><g transform="translate(529,96)"><text x="0" y="0" text-anchor="middle" dominant-baseline="text-before-edge" transform="translate(0,0)"><tspan x="0" y="0" dy="0"/></text></g><g transform="translate(470,115)"><text x="0" y="0" text-anchor="middle" dominant-baseline="text-before-edge" transform="translate(0,0)"><tspan x="0" y="0" dy="0"/></text></g><g transform="translate(482,38)"><text x="0" y="0" text-anchor="middle" dominant-baseline="text-before-edge" transform="translate(0,0)"><tspan x="0" y="0" dy="0"/></text></g><g transform="translate(505,58)"><text x="0" y="0" text-anchor="middle" dominant-baseline="text-before-edge" transform="translate(0,0)"><tspan x="0" y="0" dy="0"/></text></g><g transform="translate(529,154)"><text x="0" y="0" text-anchor="middle" dominant-baseline="text-before-edge" transform="translate(0,0)"><tspan x="0" y="0" dy="0"/></text></g><g transform="translate(670,77)"><text x="0" y="0" text-anchor="middle" dominant-baseline="text-before-edge" transform="translate(0,0)"><tspan x="0" y="0" dy="0"/></text></g><g transform="translate(693,58)"><text x="0" y="0" text-anchor="middle" dominant-baseline="text-before-edge" transform="translate(0,0)"><tspan x="0" y="0" dy="0"/></text></g><g transform="translate(470,212)"><text x="0" y="0" text-anchor="middle" dominant-baseline="text-before-edge" transform="translate(0,0)"><tspan x="0" y="0" dy="0"/></text></g><g transform="translate(552,58)"><text x="0" y="0" text-anchor="middle" dominant-baseline="text-before-edge" transform="translate(0,0)"><tspan x="0" y="0" dy="0"/></text></g><g transform="translate(458,115)"><text x="0" y="0" text-anchor="middle" dominant-baseline="text-before-edge" transform="translate(0,0)"><tspan x="0" y="0" dy="0"/></text></g><g transform="translate(670,115)"><text x="0" y="0" text-anchor="middle" dominant-baseline="text-before-edge" transform="translate(0,0)"><tspan x="0" y="0" dy="0"/></text></g><g transform="translate(458,154)"><text x="0" y="0" text-anchor="middle" dominant-baseline="text-before-edge" transform="translate(0,0)"><tspan x="0" y="0" dy="0"/></text></g><g transform="translate(552,96)"><text x="0" y="0" text-anchor="middle" dominant-baseline="text-before-edge" transform="translate(0,0)"><tspan x="0" y="0" dy="0"/></text></g><g transform="translate(588,154)"><text x="0" y="0" text-anchor="middle" dominant-baseline="text-before-edge" transform="translate(0,0)"><tspan x="0" y="0" dy="0"/></text></g><g transform="translate(447,154)"><text x="0" y="0" text-anchor="middle" dominant-baseline="text-before-edge" transform="translate(0,0)"><tspan x="0" y="0" dy="0"/></text></g><g transform="translate(458,154)"><text x="0" y="0" text-anchor="middle" dominant-baseline="text-before-edge" transform="translate(0,0)"><tspan x="0" y="0" dy="0"/></text></g><g transform="translate(541,96)"><text x="0" y="0" text-anchor="middle" dominant-baseline="text-before-edge" transform="translate(0,0)"><tspan x="0" y="0" dy="0"/></text></g><g transform="translate(564,192)"><text x="0" y="0" text-anchor="middle" dominant-baseline="text-before-edge" transform="translate(0,0)"><tspan x="0" y="0" dy="0"/></text></g><g transform="translate(599,135)"><text x="0" y="0" text-anchor="middle" dominant-baseline="text-before-edge" transform="translate(0,0)"><tspan x="0" y="0" dy="0"/></text></g><g transform="translate(635,115)"><text x="0" y="0" text-anchor="middle" dominant-baseline="text-before-edge" transform="translate(0,0)"><tspan x="0" y="0" dy="0"/></text></g><g transform="translate(541,77)"><text x="0" y="0" text-anchor="middle" dominant-baseline="text-before-edge" transform="translate(0,0)"><tspan x="0" y="0" dy="0"/></text></g><g transform="translate(482,212)"><text x="0" y="0" text-anchor="middle" dominant-baseline="text-before-edge" transform="translate(0,0)"><tspan x="0" y="0" dy="0"/></text></g><g transform="translate(541,231)"><text x="0" y="0" text-anchor="middle" dominant-baseline="text-before-edge" transform="translate(0,0)"><tspan x="0" y="0" dy="0"/></text></g><g transform="translate(599,58)"><text x="0" y="0" text-anchor="middle" dominant-baseline="text-before-edge" transform="translate(0,0)"><tspan x="0" y="0" dy="0"/></text></g><g transform="translate(541,38)"><text x="0" y="0" text-anchor="middle" dominant-baseline="text-before-edge" transform="translate(0,0)"><tspan x="0" y="0" dy="0"/></text></g><g transform="translate(529,154)"><text x="0" y="0" text-anchor="middle" dominant-baseline="text-before-edge" transform="translate(0,0)"><tspan x="0" y="0" dy="0"/></text></g><g transform="translate(447,154)"><text x="0" y="0" text-anchor="middle" dominant-baseline="text-before-edge" transform="translate(0,0)"><tspan x="0" y="0" dy="0"/></text></g><g transform="translate(517,96)"><text x="0" y="0" text-anchor="middle" dominant-baseline="text-before-edge" transform="translate(0,0)"><tspan x="0" y="0" dy="0"/></text></g><g transform="translate(541,38)"><text x="0" y="0" text-anchor="middle" dominant-baseline="text-before-edge" transform="translate(0,0)"><tspan x="0" y="0" dy="0"/></text></g><g transform="translate(482,58)"><text x="0" y="0" text-anchor="middle" dominant-baseline="text-before-edge" transform="translate(0,0)"><tspan x="0" y="0" dy="0"/></text></g><g transform="translate(482,135)"><text x="0" y="0" text-anchor="middle" dominant-baseline="text-before-edge" transform="translate(0,0)"><tspan x="0" y="0" dy="0"/></text></g><g transform="translate(576,58)"><text x="0" y="0" text-anchor="middle" dominant-baseline="text-before-edge" transform="translate(0,0)"><tspan x="0" y="0" dy="0"/></text></g><g transform="translate(552,19)"><text x="0" y="0" text-anchor="middle" dominant-baseline="text-before-edge" transform="translate(0,0)"><tspan x="0" y="0" dy="0"/></text></g><g transform="translate(494,58)"><text x="0" y="0" text-anchor="middle" dominant-baseline="text-before-edge" transform="translate(0,0)"><tspan x="0" y="0" dy="0"/></text></g><g transform="translate(470,135)"><text x="0" y="0" text-anchor="middle" dominant-baseline="text-before-edge" transform="translate(0,0)"><tspan x="0" y="0" dy="0"/></text></g><g transform="translate(494,115)"><text x="0" y="0" text-anchor="middle" dominant-baseline="text-before-edge" transform="translate(0,0)"><tspan x="0" y="0" dy="0"/></text></g><g transform="translate(517,58)"><text x="0" y="0" text-anchor="middle" dominant-baseline="text-before-edge" transform="translate(0,0)"><tspan x="0" y="0" dy="0"/></text></g><g transform="translate(482,154)"><text x="0" y="0" text-anchor="middle" dominant-baseline="text-before-edge" transform="translate(0,0)"><tspan x="0" y="0" dy="0"/></text></g></g><g id="axis"><g transform="translate(0,500)" fill="none" font-size="10" font-family="sans-serif" text-anchor="middle"><path class="domain" stroke="currentColor" d="M0.5,6V0.5H705.5V6"/><g class="tick" opacity="1" transform="translate(0.5,0)"><line stroke="currentColor" y2="6"/><text fill="currentColor" y="9" dy="0.71em">1.0</text></g><g class="tick" opacity="1" transform="translate(59.5,0)"><line stroke="currentColor" y2="6"/><text fill="currentColor" y="9" dy="0.71em">1.5</text></g><g class="tick" opacity="1" transform="translate(118.5,0)"><line stroke="currentColor" y2="6"/><text fill="currentColor" y="9" dy="0.71em">2.0</text></g><g class="tick" opacity="1" transform="translate(176.5,0)"><line stroke="currentColor" y2="6"/><text fill="currentColor" y="9" dy="0.71em">2.5</text></g><g class="tick" opacity="1" transform="translate(235.5,0)"><line stroke="currentColor" y2="6"/><text fill="currentColor" y="9" dy="0.71em">3.0</text></g><g class="tick" opacity="1" transform="translate(294.5,0)"><line stroke="currentColor" y2="6"/><text fill="currentColor" y="9" dy="0.71em">3.5</text></g><g class="tick" opacity="1" transform="translate(353.5,0)"><line stroke="currentColor" y2="6"/><text fill="currentColor" y="9" dy="0.71em">4.0</text></g><g class="tick" opacity="1" transform="translate(411.5,0)"><line stroke="currentColor" y2="6"/><text fill="currentColor" y="9" dy="0.71em">4.5</text></g><g class="tick" opacity="1" transform="translate(470.5,0)"><line stroke="currentColor" y2="6"/><text fill="currentColor" y="9" dy="0.71em">5.0</text></g><g class="tick" opacity="1" transform="translate(529.5,0)"><line stroke="currentColor" y2="6"/><text fill="currentColor" y="9" dy="0.71em">5.5</text></g><g class="tick" opacity="1" transform="translate(588.5,0)"><line stroke="currentColor" y2="6"/><text fill="currentColor" y="9" dy="0.71em">6.0</text></g><g class="tick" opacity="1" transform="translate(646.5,0)"><line stroke="currentColor" y2="6"/><text fill="currentColor" y="9" dy="0.71em">6.5</text></g><g class="tick" opacity="1" transform="translate(705.5,0)"><line stroke="currentColor" y2="6"/><text fill="currentColor" y="9" dy="0.71em">7.0</text></g><text x="705" dy="-5" text-anchor="end" style="font-family: Arial, sans-serif; font-size: 12px; fill: rgb(123, 123, 123); font-weight: bold;">Petal Length (cm)</text></g><g fill="none" font-size="10" font-family="sans-serif" text-anchor="end"><path class="domain" stroke="currentColor" d="M-6,500.5H0.5V0.5H-6"/><g class="tick" opacity="1" transform="translate(0,500.5)"><line stroke="currentColor" x2="-6"/><text fill="currentColor" x="-9" dy="0.32em">0.0</text></g><g class="tick" opacity="1" transform="translate(0,462.5)"><line stroke="currentColor" x2="-6"/><text fill="currentColor" x="-9" dy="0.32em">0.2</text></g><g class="tick" opacity="1" transform="translate(0,423.5)"><line stroke="currentColor" x2="-6"/><text fill="currentColor" x="-9" dy="0.32em">0.4</text></g><g class="tick" opacity="1" transform="translate(0,385.5)"><line stroke="currentColor" x2="-6"/><text fill="currentColor" x="-9" dy="0.32em">0.6</text></g><g class="tick" opacity="1" transform="translate(0,346.5)"><line stroke="currentColor" x2="-6"/><text fill="currentColor" x="-9" dy="0.32em">0.8</text></g><g class="tick" opacity="1" transform="translate(0,308.5)"><line stroke="currentColor" x2="-6"/><text fill="currentColor" x="-9" dy="0.32em">1.0</text></g><g class="tick" opacity="1" transform="translate(0,269.5)"><line stroke="currentColor" x2="-6"/><text fill="currentColor" x="-9" dy="0.32em">1.2</text></g><g class="tick" opacity="1" transform="translate(0,231.5)"><line stroke="currentColor" x2="-6"/><text fill="currentColor" x="-9" dy="0.32em">1.4</text></g><g class="tick" opacity="1" transform="translate(0,192.5)"><line stroke="currentColor" x2="-6"/><text fill="currentColor" x="-9" dy="0.32em">1.6</text></g><g class="tick" opacity="1" transform="translate(0,154.5)"><line stroke="currentColor" x2="-6"/><text fill="currentColor" x="-9" dy="0.32em">1.8</text></g><g class="tick" opacity="1" transform="translate(0,115.5)"><line stroke="currentColor" x2="-6"/><text fill="currentColor" x="-9" dy="0.32em">2.0</text></g><g class="tick" opacity="1" transform="translate(0,77.5)"><line stroke="currentColor" x2="-6"/><text fill="currentColor" x="-9" dy="0.32em">2.2</text></g><g class="tick" opacity="1" transform="translate(0,38.5)"><line stroke="currentColor" x2="-6"/><text fill="currentColor" x="-9" dy="0.32em">2.4</text></g><g class="tick" opacity="1" transform="translate(0,0.5)"><line stroke="currentColor" x2="-6"/><text fill="currentColor" x="-9" dy="0.32em">2.6</text></g><text x="4" text-anchor="start" dominant-baseline="hanging" style="font-family: Arial, sans-serif; font-size: 12px; fill: rgb(123, 123, 123); font-weight: bold;">Petal Width (cm)</text></g></g></g></svg>